<mxfile host="app.diagrams.net" modified="2022-05-05T23:45:36.614Z" agent="5.0 (Windows NT 10.0; Win64; x64) AppleWebKit/537.36 (KHTML, like Gecko) Chrome/100.0.4896.127 Safari/537.36" etag="ZEYgB8z2VvNkAUpTEbT-" version="17.5.0" type="github">
  <diagram id="M7Vx2tecBPsty3_4QmwK" name="Page-1">
    <mxGraphModel dx="2749" dy="1058" grid="1" gridSize="10" guides="1" tooltips="1" connect="1" arrows="1" fold="1" page="1" pageScale="1" pageWidth="1169" pageHeight="827" math="0" shadow="0">
      <root>
        <mxCell id="0" />
        <mxCell id="1" parent="0" />
        <mxCell id="4sgsqvzbMtS0N8RyLacB-2" value="Dentoalveolar Infections" style="rounded=1;whiteSpace=wrap;html=1;sketch=1;fontStyle=1" vertex="1" parent="1">
          <mxGeometry x="525" y="20" width="120" height="60" as="geometry" />
        </mxCell>
        <mxCell id="4sgsqvzbMtS0N8RyLacB-3" value="&lt;h1&gt;&lt;font face=&quot;Verdana&quot;&gt;Dentoalveolar Infections&lt;/font&gt;&lt;/h1&gt;" style="text;html=1;strokeColor=none;fillColor=none;spacing=5;spacingTop=-20;whiteSpace=wrap;overflow=hidden;rounded=0;sketch=1;fillStyle=hachure;fontStyle=1" vertex="1" parent="1">
          <mxGeometry x="40" y="40" width="200" height="80" as="geometry" />
        </mxCell>
        <mxCell id="4sgsqvzbMtS0N8RyLacB-95" value="" style="edgeStyle=orthogonalEdgeStyle;curved=1;rounded=1;sketch=1;orthogonalLoop=1;jettySize=auto;html=1;fontFamily=Verdana;fontStyle=1" edge="1" parent="1" source="4sgsqvzbMtS0N8RyLacB-5" target="4sgsqvzbMtS0N8RyLacB-66">
          <mxGeometry relative="1" as="geometry" />
        </mxCell>
        <mxCell id="4sgsqvzbMtS0N8RyLacB-5" value="Maxillary Incisors" style="rounded=1;whiteSpace=wrap;html=1;sketch=1;container=0;fontStyle=1" vertex="1" parent="1">
          <mxGeometry x="240" y="200" width="120" height="40" as="geometry" />
        </mxCell>
        <mxCell id="4sgsqvzbMtS0N8RyLacB-94" value="" style="edgeStyle=orthogonalEdgeStyle;curved=1;rounded=1;sketch=1;orthogonalLoop=1;jettySize=auto;html=1;fontFamily=Verdana;fontStyle=1" edge="1" parent="1" source="4sgsqvzbMtS0N8RyLacB-6" target="4sgsqvzbMtS0N8RyLacB-81">
          <mxGeometry relative="1" as="geometry" />
        </mxCell>
        <mxCell id="4sgsqvzbMtS0N8RyLacB-6" value="Maxillary Canine" style="rounded=1;whiteSpace=wrap;html=1;sketch=1;container=0;fontStyle=1" vertex="1" parent="1">
          <mxGeometry x="900" y="200" width="120" height="40" as="geometry" />
        </mxCell>
        <mxCell id="4sgsqvzbMtS0N8RyLacB-93" value="" style="edgeStyle=orthogonalEdgeStyle;curved=1;rounded=1;sketch=1;orthogonalLoop=1;jettySize=auto;html=1;fontFamily=Verdana;fontStyle=1" edge="1" parent="1" source="4sgsqvzbMtS0N8RyLacB-8" target="4sgsqvzbMtS0N8RyLacB-90">
          <mxGeometry relative="1" as="geometry" />
        </mxCell>
        <mxCell id="4sgsqvzbMtS0N8RyLacB-8" value="Maxillary Molars" style="rounded=1;whiteSpace=wrap;html=1;sketch=1;container=0;fontStyle=1" vertex="1" parent="1">
          <mxGeometry x="1680" y="200" width="120" height="40" as="geometry" />
        </mxCell>
        <mxCell id="4sgsqvzbMtS0N8RyLacB-64" value="" style="edgeStyle=orthogonalEdgeStyle;curved=1;rounded=1;sketch=1;orthogonalLoop=1;jettySize=auto;html=1;fontFamily=Verdana;fontStyle=1" edge="1" source="4sgsqvzbMtS0N8RyLacB-66" target="4sgsqvzbMtS0N8RyLacB-68" parent="1">
          <mxGeometry relative="1" as="geometry" />
        </mxCell>
        <mxCell id="4sgsqvzbMtS0N8RyLacB-65" value="" style="edgeStyle=orthogonalEdgeStyle;curved=1;rounded=1;sketch=1;orthogonalLoop=1;jettySize=auto;html=1;fontFamily=Verdana;fontStyle=1" edge="1" source="4sgsqvzbMtS0N8RyLacB-66" target="4sgsqvzbMtS0N8RyLacB-70" parent="1">
          <mxGeometry relative="1" as="geometry" />
        </mxCell>
        <mxCell id="4sgsqvzbMtS0N8RyLacB-66" value="Cortical &lt;br&gt;plate" style="rhombus;whiteSpace=wrap;html=1;rounded=1;sketch=1;fillColor=#fad9d5;strokeColor=#ae4132;fillStyle=solid;fontStyle=1" vertex="1" parent="1">
          <mxGeometry x="260" y="280" width="80" height="80" as="geometry" />
        </mxCell>
        <mxCell id="4sgsqvzbMtS0N8RyLacB-67" value="" style="edgeStyle=orthogonalEdgeStyle;curved=1;rounded=1;sketch=1;orthogonalLoop=1;jettySize=auto;html=1;fontFamily=Verdana;fontStyle=1" edge="1" source="4sgsqvzbMtS0N8RyLacB-68" target="4sgsqvzbMtS0N8RyLacB-71" parent="1">
          <mxGeometry relative="1" as="geometry" />
        </mxCell>
        <mxCell id="4sgsqvzbMtS0N8RyLacB-68" value="Labial Cortical plate" style="whiteSpace=wrap;html=1;rounded=1;sketch=1;fontStyle=1" vertex="1" parent="1">
          <mxGeometry x="80" y="300" width="120" height="40" as="geometry" />
        </mxCell>
        <mxCell id="4sgsqvzbMtS0N8RyLacB-70" value="Palatal Cortical plate" style="whiteSpace=wrap;html=1;rounded=1;sketch=1;fontStyle=1" vertex="1" parent="1">
          <mxGeometry x="400" y="300" width="120" height="40" as="geometry" />
        </mxCell>
        <mxCell id="4sgsqvzbMtS0N8RyLacB-71" value="Mentalis Attachment" style="rhombus;whiteSpace=wrap;html=1;rounded=1;sketch=1;fillColor=#fad9d5;strokeColor=#ae4132;fillStyle=solid;fontStyle=1" vertex="1" parent="1">
          <mxGeometry x="90" y="400" width="100" height="100" as="geometry" />
        </mxCell>
        <mxCell id="4sgsqvzbMtS0N8RyLacB-73" value="" style="edgeStyle=orthogonalEdgeStyle;curved=1;rounded=1;sketch=1;orthogonalLoop=1;jettySize=auto;html=1;fontFamily=Verdana;fontStyle=1" edge="1" source="4sgsqvzbMtS0N8RyLacB-81" target="4sgsqvzbMtS0N8RyLacB-76" parent="1">
          <mxGeometry relative="1" as="geometry" />
        </mxCell>
        <mxCell id="4sgsqvzbMtS0N8RyLacB-74" value="" style="edgeStyle=orthogonalEdgeStyle;curved=1;rounded=1;sketch=1;orthogonalLoop=1;jettySize=auto;html=1;fontFamily=Verdana;fontStyle=1" edge="1" source="4sgsqvzbMtS0N8RyLacB-81" target="4sgsqvzbMtS0N8RyLacB-78" parent="1">
          <mxGeometry relative="1" as="geometry" />
        </mxCell>
        <mxCell id="4sgsqvzbMtS0N8RyLacB-75" value="" style="edgeStyle=orthogonalEdgeStyle;curved=1;rounded=1;sketch=1;orthogonalLoop=1;jettySize=auto;html=1;fontFamily=Verdana;fontStyle=1" edge="1" source="4sgsqvzbMtS0N8RyLacB-76" target="4sgsqvzbMtS0N8RyLacB-79" parent="1">
          <mxGeometry relative="1" as="geometry" />
        </mxCell>
        <mxCell id="4sgsqvzbMtS0N8RyLacB-76" value="Labial Cortical plate" style="whiteSpace=wrap;html=1;rounded=1;sketch=1;fontStyle=1" vertex="1" parent="1">
          <mxGeometry x="740" y="300" width="120" height="40" as="geometry" />
        </mxCell>
        <mxCell id="4sgsqvzbMtS0N8RyLacB-78" value="Palatal Cortical plate" style="whiteSpace=wrap;html=1;rounded=1;sketch=1;fontStyle=1" vertex="1" parent="1">
          <mxGeometry x="1060" y="300" width="120" height="40" as="geometry" />
        </mxCell>
        <mxCell id="4sgsqvzbMtS0N8RyLacB-79" value="Mentalis Attachment" style="rhombus;whiteSpace=wrap;html=1;rounded=1;sketch=1;fillColor=#fad9d5;strokeColor=#ae4132;fillStyle=solid;fontStyle=1" vertex="1" parent="1">
          <mxGeometry x="750" y="400" width="100" height="100" as="geometry" />
        </mxCell>
        <mxCell id="4sgsqvzbMtS0N8RyLacB-81" value="Cortical &lt;br&gt;plate" style="rhombus;whiteSpace=wrap;html=1;rounded=1;sketch=1;fillColor=#fad9d5;strokeColor=#ae4132;fillStyle=solid;fontStyle=1" vertex="1" parent="1">
          <mxGeometry x="920" y="280" width="80" height="80" as="geometry" />
        </mxCell>
        <mxCell id="4sgsqvzbMtS0N8RyLacB-82" value="" style="edgeStyle=orthogonalEdgeStyle;curved=1;rounded=1;sketch=1;orthogonalLoop=1;jettySize=auto;html=1;fontFamily=Verdana;fontStyle=1" edge="1" source="4sgsqvzbMtS0N8RyLacB-90" target="4sgsqvzbMtS0N8RyLacB-85" parent="1">
          <mxGeometry relative="1" as="geometry" />
        </mxCell>
        <mxCell id="4sgsqvzbMtS0N8RyLacB-83" value="" style="edgeStyle=orthogonalEdgeStyle;curved=1;rounded=1;sketch=1;orthogonalLoop=1;jettySize=auto;html=1;fontFamily=Verdana;fontStyle=1" edge="1" source="4sgsqvzbMtS0N8RyLacB-90" target="4sgsqvzbMtS0N8RyLacB-87" parent="1">
          <mxGeometry relative="1" as="geometry" />
        </mxCell>
        <mxCell id="4sgsqvzbMtS0N8RyLacB-84" value="" style="edgeStyle=orthogonalEdgeStyle;curved=1;rounded=1;sketch=1;orthogonalLoop=1;jettySize=auto;html=1;fontFamily=Verdana;fontStyle=1" edge="1" source="4sgsqvzbMtS0N8RyLacB-85" target="4sgsqvzbMtS0N8RyLacB-88" parent="1">
          <mxGeometry relative="1" as="geometry" />
        </mxCell>
        <mxCell id="4sgsqvzbMtS0N8RyLacB-85" value="Buccal Cortical plate" style="whiteSpace=wrap;html=1;rounded=1;sketch=1;fontStyle=1" vertex="1" parent="1">
          <mxGeometry x="1520" y="300" width="120" height="40" as="geometry" />
        </mxCell>
        <mxCell id="4sgsqvzbMtS0N8RyLacB-87" value="Palatal Cortical plate" style="whiteSpace=wrap;html=1;rounded=1;sketch=1;fontStyle=1" vertex="1" parent="1">
          <mxGeometry x="1840" y="300" width="120" height="40" as="geometry" />
        </mxCell>
        <mxCell id="4sgsqvzbMtS0N8RyLacB-128" value="" style="edgeStyle=orthogonalEdgeStyle;curved=1;rounded=1;sketch=1;orthogonalLoop=1;jettySize=auto;html=1;fontFamily=Verdana;" edge="1" parent="1" source="4sgsqvzbMtS0N8RyLacB-88" target="4sgsqvzbMtS0N8RyLacB-126">
          <mxGeometry relative="1" as="geometry" />
        </mxCell>
        <mxCell id="4sgsqvzbMtS0N8RyLacB-129" value="" style="edgeStyle=orthogonalEdgeStyle;curved=1;rounded=1;sketch=1;orthogonalLoop=1;jettySize=auto;html=1;fontFamily=Verdana;" edge="1" parent="1" source="4sgsqvzbMtS0N8RyLacB-88" target="4sgsqvzbMtS0N8RyLacB-127">
          <mxGeometry relative="1" as="geometry" />
        </mxCell>
        <mxCell id="4sgsqvzbMtS0N8RyLacB-88" value="Buccinator Attachment" style="rhombus;whiteSpace=wrap;html=1;rounded=1;sketch=1;fillColor=#fad9d5;strokeColor=#ae4132;fillStyle=solid;fontStyle=1" vertex="1" parent="1">
          <mxGeometry x="1530" y="400" width="100" height="100" as="geometry" />
        </mxCell>
        <mxCell id="4sgsqvzbMtS0N8RyLacB-90" value="Cortical &lt;br&gt;plate" style="rhombus;whiteSpace=wrap;html=1;rounded=1;sketch=1;fillColor=#fad9d5;strokeColor=#ae4132;fillStyle=solid;fontStyle=1" vertex="1" parent="1">
          <mxGeometry x="1700" y="280" width="80" height="80" as="geometry" />
        </mxCell>
        <mxCell id="4sgsqvzbMtS0N8RyLacB-98" value="" style="edgeStyle=orthogonalEdgeStyle;curved=1;rounded=1;sketch=1;orthogonalLoop=1;jettySize=auto;html=1;fontFamily=Verdana;fontStyle=1" edge="1" parent="1" source="4sgsqvzbMtS0N8RyLacB-96" target="4sgsqvzbMtS0N8RyLacB-99">
          <mxGeometry relative="1" as="geometry">
            <mxPoint x="970" y="780" as="targetPoint" />
          </mxGeometry>
        </mxCell>
        <mxCell id="4sgsqvzbMtS0N8RyLacB-96" value="Medulla of maxilla or mandible" style="rounded=1;whiteSpace=wrap;html=1;sketch=1;container=0;fontStyle=1" vertex="1" parent="1">
          <mxGeometry x="910" y="680" width="120" height="40" as="geometry" />
        </mxCell>
        <mxCell id="4sgsqvzbMtS0N8RyLacB-105" value="" style="edgeStyle=orthogonalEdgeStyle;curved=1;rounded=1;sketch=1;orthogonalLoop=1;jettySize=auto;html=1;fontFamily=Verdana;fontStyle=1" edge="1" parent="1" source="4sgsqvzbMtS0N8RyLacB-99" target="4sgsqvzbMtS0N8RyLacB-102">
          <mxGeometry relative="1" as="geometry" />
        </mxCell>
        <mxCell id="4sgsqvzbMtS0N8RyLacB-107" value="" style="edgeStyle=orthogonalEdgeStyle;curved=1;rounded=1;sketch=1;orthogonalLoop=1;jettySize=auto;html=1;fontFamily=Verdana;fontStyle=1" edge="1" parent="1" source="4sgsqvzbMtS0N8RyLacB-99" target="4sgsqvzbMtS0N8RyLacB-103">
          <mxGeometry relative="1" as="geometry" />
        </mxCell>
        <mxCell id="4sgsqvzbMtS0N8RyLacB-99" value="Path of least Resistance" style="rhombus;whiteSpace=wrap;html=1;rounded=1;sketch=1;fontStyle=1;fillColor=#fad9d5;strokeColor=#ae4132;fillStyle=solid;" vertex="1" parent="1">
          <mxGeometry x="920" y="780" width="100" height="100" as="geometry" />
        </mxCell>
        <mxCell id="4sgsqvzbMtS0N8RyLacB-106" value="" style="edgeStyle=orthogonalEdgeStyle;curved=1;rounded=1;sketch=1;orthogonalLoop=1;jettySize=auto;html=1;fontFamily=Verdana;fontStyle=1" edge="1" parent="1" source="4sgsqvzbMtS0N8RyLacB-102" target="4sgsqvzbMtS0N8RyLacB-104">
          <mxGeometry relative="1" as="geometry" />
        </mxCell>
        <mxCell id="4sgsqvzbMtS0N8RyLacB-102" value="Medullary bone" style="rounded=1;whiteSpace=wrap;html=1;sketch=1;container=0;fontStyle=1" vertex="1" parent="1">
          <mxGeometry x="1080" y="810" width="120" height="40" as="geometry" />
        </mxCell>
        <mxCell id="4sgsqvzbMtS0N8RyLacB-103" value="Erodes the Cortex" style="rounded=1;whiteSpace=wrap;html=1;sketch=1;container=0;fontStyle=1" vertex="1" parent="1">
          <mxGeometry x="910" y="920" width="120" height="40" as="geometry" />
        </mxCell>
        <mxCell id="4sgsqvzbMtS0N8RyLacB-104" value="Osteomyelitis" style="rounded=1;whiteSpace=wrap;html=1;sketch=1;container=0;fontStyle=1" vertex="1" parent="1">
          <mxGeometry x="1270" y="810" width="120" height="40" as="geometry" />
        </mxCell>
        <mxCell id="4sgsqvzbMtS0N8RyLacB-126" value="Buccal Space&lt;br&gt;(Buccinator Space)" style="whiteSpace=wrap;html=1;rounded=1;sketch=1;fontStyle=1" vertex="1" parent="1">
          <mxGeometry x="1520" y="550" width="120" height="40" as="geometry" />
        </mxCell>
        <mxCell id="4sgsqvzbMtS0N8RyLacB-127" value="Vestibular Abscess" style="whiteSpace=wrap;html=1;rounded=1;sketch=1;fontStyle=1" vertex="1" parent="1">
          <mxGeometry x="1350" y="430" width="120" height="40" as="geometry" />
        </mxCell>
        <mxCell id="4sgsqvzbMtS0N8RyLacB-174" value="" style="edgeStyle=orthogonalEdgeStyle;curved=1;rounded=1;sketch=1;orthogonalLoop=1;jettySize=auto;html=1;fontFamily=Verdana;" edge="1" parent="1" source="4sgsqvzbMtS0N8RyLacB-132" target="4sgsqvzbMtS0N8RyLacB-173">
          <mxGeometry relative="1" as="geometry" />
        </mxCell>
        <mxCell id="4sgsqvzbMtS0N8RyLacB-132" value="Mandibular Third Molar" style="rounded=1;whiteSpace=wrap;html=1;sketch=1;container=0;fontStyle=1" vertex="1" parent="1">
          <mxGeometry x="2810" y="1160" width="120" height="40" as="geometry" />
        </mxCell>
        <mxCell id="4sgsqvzbMtS0N8RyLacB-136" value="Buccal Cortical plate" style="whiteSpace=wrap;html=1;rounded=1;sketch=1;fontStyle=1;container=0;" vertex="1" parent="1">
          <mxGeometry x="2650" y="1340" width="120" height="40" as="geometry" />
        </mxCell>
        <mxCell id="4sgsqvzbMtS0N8RyLacB-138" value="Lingual Cortical plate" style="whiteSpace=wrap;html=1;rounded=1;sketch=1;fontStyle=1;container=0;" vertex="1" parent="1">
          <mxGeometry x="2970" y="1340" width="120" height="40" as="geometry" />
        </mxCell>
        <mxCell id="4sgsqvzbMtS0N8RyLacB-141" value="Buccinator Attachment" style="rhombus;whiteSpace=wrap;html=1;rounded=1;sketch=1;fillColor=#fad9d5;strokeColor=#ae4132;fillStyle=solid;fontStyle=1;container=0;" vertex="1" parent="1">
          <mxGeometry x="2660" y="1440" width="100" height="100" as="geometry" />
        </mxCell>
        <mxCell id="4sgsqvzbMtS0N8RyLacB-135" value="" style="edgeStyle=orthogonalEdgeStyle;curved=1;rounded=1;sketch=1;orthogonalLoop=1;jettySize=auto;html=1;fontFamily=Verdana;fontStyle=1" edge="1" source="4sgsqvzbMtS0N8RyLacB-136" target="4sgsqvzbMtS0N8RyLacB-141" parent="1">
          <mxGeometry relative="1" as="geometry" />
        </mxCell>
        <mxCell id="4sgsqvzbMtS0N8RyLacB-176" value="" style="edgeStyle=orthogonalEdgeStyle;curved=1;rounded=1;sketch=1;orthogonalLoop=1;jettySize=auto;html=1;fontFamily=Verdana;" edge="1" parent="1" source="4sgsqvzbMtS0N8RyLacB-144" target="4sgsqvzbMtS0N8RyLacB-175">
          <mxGeometry relative="1" as="geometry" />
        </mxCell>
        <mxCell id="4sgsqvzbMtS0N8RyLacB-144" value="Mylohyoid Attachment" style="rhombus;whiteSpace=wrap;html=1;rounded=1;sketch=1;fillColor=#fad9d5;strokeColor=#ae4132;fillStyle=solid;fontStyle=1;container=0;" vertex="1" parent="1">
          <mxGeometry x="2980" y="1440" width="100" height="100" as="geometry" />
        </mxCell>
        <mxCell id="4sgsqvzbMtS0N8RyLacB-137" value="" style="edgeStyle=orthogonalEdgeStyle;curved=1;rounded=1;sketch=1;orthogonalLoop=1;jettySize=auto;html=1;fontFamily=Verdana;fontStyle=1" edge="1" source="4sgsqvzbMtS0N8RyLacB-138" target="4sgsqvzbMtS0N8RyLacB-144" parent="1">
          <mxGeometry relative="1" as="geometry" />
        </mxCell>
        <mxCell id="4sgsqvzbMtS0N8RyLacB-145" value="Cortical &lt;br&gt;plate" style="rhombus;whiteSpace=wrap;html=1;rounded=1;sketch=1;fillColor=#fad9d5;strokeColor=#ae4132;fillStyle=solid;fontStyle=1;container=0;" vertex="1" parent="1">
          <mxGeometry x="2830" y="1320" width="80" height="80" as="geometry" />
        </mxCell>
        <mxCell id="4sgsqvzbMtS0N8RyLacB-131" value="" style="edgeStyle=orthogonalEdgeStyle;curved=1;rounded=1;sketch=1;orthogonalLoop=1;jettySize=auto;html=1;fontFamily=Verdana;fontStyle=1" edge="1" source="4sgsqvzbMtS0N8RyLacB-132" target="4sgsqvzbMtS0N8RyLacB-145" parent="1">
          <mxGeometry relative="1" as="geometry" />
        </mxCell>
        <mxCell id="4sgsqvzbMtS0N8RyLacB-133" value="" style="edgeStyle=orthogonalEdgeStyle;curved=1;rounded=1;sketch=1;orthogonalLoop=1;jettySize=auto;html=1;fontFamily=Verdana;fontStyle=1" edge="1" source="4sgsqvzbMtS0N8RyLacB-145" target="4sgsqvzbMtS0N8RyLacB-136" parent="1">
          <mxGeometry relative="1" as="geometry" />
        </mxCell>
        <mxCell id="4sgsqvzbMtS0N8RyLacB-134" value="" style="edgeStyle=orthogonalEdgeStyle;curved=1;rounded=1;sketch=1;orthogonalLoop=1;jettySize=auto;html=1;fontFamily=Verdana;fontStyle=1" edge="1" source="4sgsqvzbMtS0N8RyLacB-145" target="4sgsqvzbMtS0N8RyLacB-138" parent="1">
          <mxGeometry relative="1" as="geometry" />
        </mxCell>
        <mxCell id="4sgsqvzbMtS0N8RyLacB-146" value="Vestibular Abscess" style="whiteSpace=wrap;html=1;rounded=1;sketch=1;fontStyle=1;container=0;" vertex="1" parent="1">
          <mxGeometry x="2480" y="1470" width="120" height="40" as="geometry" />
        </mxCell>
        <mxCell id="4sgsqvzbMtS0N8RyLacB-139" value="" style="edgeStyle=orthogonalEdgeStyle;curved=1;rounded=1;sketch=1;orthogonalLoop=1;jettySize=auto;html=1;fontFamily=Verdana;fontStyle=1" edge="1" source="4sgsqvzbMtS0N8RyLacB-141" target="4sgsqvzbMtS0N8RyLacB-146" parent="1">
          <mxGeometry relative="1" as="geometry" />
        </mxCell>
        <mxCell id="4sgsqvzbMtS0N8RyLacB-147" value="Buccal Space&lt;br&gt;(Buccinator Space)" style="whiteSpace=wrap;html=1;rounded=1;sketch=1;fontStyle=1;container=0;" vertex="1" parent="1">
          <mxGeometry x="2650" y="1590" width="120" height="40" as="geometry" />
        </mxCell>
        <mxCell id="4sgsqvzbMtS0N8RyLacB-140" value="" style="edgeStyle=orthogonalEdgeStyle;curved=1;rounded=1;sketch=1;orthogonalLoop=1;jettySize=auto;html=1;fontFamily=Verdana;fontStyle=1" edge="1" source="4sgsqvzbMtS0N8RyLacB-141" target="4sgsqvzbMtS0N8RyLacB-147" parent="1">
          <mxGeometry relative="1" as="geometry" />
        </mxCell>
        <mxCell id="4sgsqvzbMtS0N8RyLacB-148" value="Sublingual Space Infection" style="whiteSpace=wrap;html=1;rounded=1;sketch=1;fontStyle=1;container=0;" vertex="1" parent="1">
          <mxGeometry x="3130" y="1470" width="120" height="40" as="geometry" />
        </mxCell>
        <mxCell id="4sgsqvzbMtS0N8RyLacB-143" value="" style="edgeStyle=orthogonalEdgeStyle;curved=1;rounded=1;sketch=1;orthogonalLoop=1;jettySize=auto;html=1;fontFamily=Verdana;fontStyle=1" edge="1" source="4sgsqvzbMtS0N8RyLacB-144" target="4sgsqvzbMtS0N8RyLacB-148" parent="1">
          <mxGeometry relative="1" as="geometry" />
        </mxCell>
        <mxCell id="4sgsqvzbMtS0N8RyLacB-149" value="Submandibular Space Infection" style="whiteSpace=wrap;html=1;rounded=1;sketch=1;fontStyle=1;container=0;" vertex="1" parent="1">
          <mxGeometry x="2810" y="1470" width="120" height="40" as="geometry" />
        </mxCell>
        <mxCell id="4sgsqvzbMtS0N8RyLacB-142" value="" style="edgeStyle=orthogonalEdgeStyle;curved=1;rounded=1;sketch=1;orthogonalLoop=1;jettySize=auto;html=1;fontFamily=Verdana;fontStyle=1" edge="1" source="4sgsqvzbMtS0N8RyLacB-144" target="4sgsqvzbMtS0N8RyLacB-149" parent="1">
          <mxGeometry relative="1" as="geometry" />
        </mxCell>
        <mxCell id="4sgsqvzbMtS0N8RyLacB-4" value="Mandibular Incisors" style="rounded=1;whiteSpace=wrap;html=1;sketch=1;container=0;fontStyle=1" vertex="1" parent="1">
          <mxGeometry x="240" y="1160" width="120" height="40" as="geometry" />
        </mxCell>
        <mxCell id="4sgsqvzbMtS0N8RyLacB-15" value="Cortical &lt;br&gt;plate" style="rhombus;whiteSpace=wrap;html=1;rounded=1;sketch=1;fillColor=#fad9d5;strokeColor=#ae4132;fillStyle=solid;fontStyle=1;container=0;" vertex="1" parent="1">
          <mxGeometry x="260" y="1240" width="80" height="80" as="geometry" />
        </mxCell>
        <mxCell id="4sgsqvzbMtS0N8RyLacB-16" value="" style="edgeStyle=orthogonalEdgeStyle;curved=1;rounded=1;sketch=1;orthogonalLoop=1;jettySize=auto;html=1;fontFamily=Verdana;fontStyle=1" edge="1" parent="1" source="4sgsqvzbMtS0N8RyLacB-4" target="4sgsqvzbMtS0N8RyLacB-15">
          <mxGeometry relative="1" as="geometry" />
        </mxCell>
        <mxCell id="4sgsqvzbMtS0N8RyLacB-17" value="Labial Cortical plate" style="whiteSpace=wrap;html=1;rounded=1;sketch=1;fontStyle=1;container=0;" vertex="1" parent="1">
          <mxGeometry x="80" y="1260" width="120" height="40" as="geometry" />
        </mxCell>
        <mxCell id="4sgsqvzbMtS0N8RyLacB-18" value="" style="edgeStyle=orthogonalEdgeStyle;curved=1;rounded=1;sketch=1;orthogonalLoop=1;jettySize=auto;html=1;fontFamily=Verdana;fontStyle=1" edge="1" parent="1" source="4sgsqvzbMtS0N8RyLacB-15" target="4sgsqvzbMtS0N8RyLacB-17">
          <mxGeometry relative="1" as="geometry" />
        </mxCell>
        <mxCell id="4sgsqvzbMtS0N8RyLacB-19" value="Lingual Cortical plate" style="whiteSpace=wrap;html=1;rounded=1;sketch=1;fontStyle=1;container=0;" vertex="1" parent="1">
          <mxGeometry x="400" y="1260" width="120" height="40" as="geometry" />
        </mxCell>
        <mxCell id="4sgsqvzbMtS0N8RyLacB-21" value="" style="edgeStyle=orthogonalEdgeStyle;curved=1;rounded=1;sketch=1;orthogonalLoop=1;jettySize=auto;html=1;fontFamily=Verdana;fontStyle=1" edge="1" parent="1" source="4sgsqvzbMtS0N8RyLacB-15" target="4sgsqvzbMtS0N8RyLacB-19">
          <mxGeometry relative="1" as="geometry" />
        </mxCell>
        <mxCell id="4sgsqvzbMtS0N8RyLacB-22" value="Mentalis Attachment" style="rhombus;whiteSpace=wrap;html=1;rounded=1;sketch=1;fillColor=#fad9d5;strokeColor=#ae4132;fillStyle=solid;fontStyle=1;container=0;" vertex="1" parent="1">
          <mxGeometry x="90" y="1360" width="100" height="100" as="geometry" />
        </mxCell>
        <mxCell id="4sgsqvzbMtS0N8RyLacB-23" value="" style="edgeStyle=orthogonalEdgeStyle;curved=1;rounded=1;sketch=1;orthogonalLoop=1;jettySize=auto;html=1;fontFamily=Verdana;fontStyle=1" edge="1" parent="1" source="4sgsqvzbMtS0N8RyLacB-17" target="4sgsqvzbMtS0N8RyLacB-22">
          <mxGeometry relative="1" as="geometry" />
        </mxCell>
        <mxCell id="4sgsqvzbMtS0N8RyLacB-24" value="Mylohyoid Attachment" style="rhombus;whiteSpace=wrap;html=1;rounded=1;sketch=1;fillColor=#fad9d5;strokeColor=#ae4132;fillStyle=solid;fontStyle=1;container=0;" vertex="1" parent="1">
          <mxGeometry x="410" y="1360" width="100" height="100" as="geometry" />
        </mxCell>
        <mxCell id="4sgsqvzbMtS0N8RyLacB-25" value="" style="edgeStyle=orthogonalEdgeStyle;curved=1;rounded=1;sketch=1;orthogonalLoop=1;jettySize=auto;html=1;fontFamily=Verdana;fontStyle=1" edge="1" parent="1" source="4sgsqvzbMtS0N8RyLacB-19" target="4sgsqvzbMtS0N8RyLacB-24">
          <mxGeometry relative="1" as="geometry" />
        </mxCell>
        <mxCell id="4sgsqvzbMtS0N8RyLacB-110" value="Vestibular Abscess" style="whiteSpace=wrap;html=1;rounded=1;sketch=1;fontStyle=1;container=0;" vertex="1" parent="1">
          <mxGeometry x="-100" y="1390" width="120" height="40" as="geometry" />
        </mxCell>
        <mxCell id="4sgsqvzbMtS0N8RyLacB-114" value="" style="edgeStyle=orthogonalEdgeStyle;curved=1;rounded=1;sketch=1;orthogonalLoop=1;jettySize=auto;html=1;fontFamily=Verdana;fontStyle=1" edge="1" parent="1" source="4sgsqvzbMtS0N8RyLacB-22" target="4sgsqvzbMtS0N8RyLacB-110">
          <mxGeometry relative="1" as="geometry" />
        </mxCell>
        <mxCell id="4sgsqvzbMtS0N8RyLacB-111" value="Mental Space Infection" style="whiteSpace=wrap;html=1;rounded=1;sketch=1;fontStyle=1;container=0;" vertex="1" parent="1">
          <mxGeometry x="80" y="1510" width="120" height="40" as="geometry" />
        </mxCell>
        <mxCell id="4sgsqvzbMtS0N8RyLacB-115" value="" style="edgeStyle=orthogonalEdgeStyle;curved=1;rounded=1;sketch=1;orthogonalLoop=1;jettySize=auto;html=1;fontFamily=Verdana;fontStyle=1" edge="1" parent="1" source="4sgsqvzbMtS0N8RyLacB-22" target="4sgsqvzbMtS0N8RyLacB-111">
          <mxGeometry relative="1" as="geometry" />
        </mxCell>
        <mxCell id="4sgsqvzbMtS0N8RyLacB-118" value="Submental Space Infection" style="whiteSpace=wrap;html=1;rounded=1;sketch=1;fontStyle=1;container=0;" vertex="1" parent="1">
          <mxGeometry x="400" y="1510" width="120" height="40" as="geometry" />
        </mxCell>
        <mxCell id="4sgsqvzbMtS0N8RyLacB-119" value="" style="edgeStyle=orthogonalEdgeStyle;curved=1;rounded=1;sketch=1;orthogonalLoop=1;jettySize=auto;html=1;fontFamily=Verdana;fontStyle=1" edge="1" parent="1" source="4sgsqvzbMtS0N8RyLacB-24" target="4sgsqvzbMtS0N8RyLacB-118">
          <mxGeometry relative="1" as="geometry" />
        </mxCell>
        <mxCell id="4sgsqvzbMtS0N8RyLacB-120" value="Sublingual Space Infection" style="whiteSpace=wrap;html=1;rounded=1;sketch=1;fontStyle=1;container=0;" vertex="1" parent="1">
          <mxGeometry x="560" y="1390" width="120" height="40" as="geometry" />
        </mxCell>
        <mxCell id="4sgsqvzbMtS0N8RyLacB-121" value="" style="edgeStyle=orthogonalEdgeStyle;curved=1;rounded=1;sketch=1;orthogonalLoop=1;jettySize=auto;html=1;fontFamily=Verdana;fontStyle=1" edge="1" parent="1" source="4sgsqvzbMtS0N8RyLacB-24" target="4sgsqvzbMtS0N8RyLacB-120">
          <mxGeometry relative="1" as="geometry" />
        </mxCell>
        <mxCell id="4sgsqvzbMtS0N8RyLacB-7" value="Mandibular Canine" style="rounded=1;whiteSpace=wrap;html=1;sketch=1;container=0;fontStyle=1" vertex="1" parent="1">
          <mxGeometry x="1088" y="1160" width="120" height="40" as="geometry" />
        </mxCell>
        <mxCell id="4sgsqvzbMtS0N8RyLacB-39" value="Labial Cortical plate" style="whiteSpace=wrap;html=1;rounded=1;sketch=1;fontStyle=1;container=0;" vertex="1" parent="1">
          <mxGeometry x="928" y="1260" width="120" height="40" as="geometry" />
        </mxCell>
        <mxCell id="4sgsqvzbMtS0N8RyLacB-41" value="Lingual Cortical plate" style="whiteSpace=wrap;html=1;rounded=1;sketch=1;fontStyle=1;container=0;" vertex="1" parent="1">
          <mxGeometry x="1248" y="1260" width="120" height="40" as="geometry" />
        </mxCell>
        <mxCell id="4sgsqvzbMtS0N8RyLacB-42" value="Mentalis Attachment" style="rhombus;whiteSpace=wrap;html=1;rounded=1;sketch=1;fillColor=#fad9d5;strokeColor=#ae4132;fillStyle=solid;fontStyle=1;container=0;" vertex="1" parent="1">
          <mxGeometry x="938" y="1360" width="100" height="100" as="geometry" />
        </mxCell>
        <mxCell id="4sgsqvzbMtS0N8RyLacB-38" value="" style="edgeStyle=orthogonalEdgeStyle;curved=1;rounded=1;sketch=1;orthogonalLoop=1;jettySize=auto;html=1;fontFamily=Verdana;fontStyle=1" edge="1" source="4sgsqvzbMtS0N8RyLacB-39" target="4sgsqvzbMtS0N8RyLacB-42" parent="1">
          <mxGeometry relative="1" as="geometry" />
        </mxCell>
        <mxCell id="4sgsqvzbMtS0N8RyLacB-43" value="Mylohyoid Attachment" style="rhombus;whiteSpace=wrap;html=1;rounded=1;sketch=1;fillColor=#fad9d5;strokeColor=#ae4132;fillStyle=solid;fontStyle=1;container=0;" vertex="1" parent="1">
          <mxGeometry x="1258" y="1360" width="100" height="100" as="geometry" />
        </mxCell>
        <mxCell id="4sgsqvzbMtS0N8RyLacB-40" value="" style="edgeStyle=orthogonalEdgeStyle;curved=1;rounded=1;sketch=1;orthogonalLoop=1;jettySize=auto;html=1;fontFamily=Verdana;fontStyle=1" edge="1" source="4sgsqvzbMtS0N8RyLacB-41" target="4sgsqvzbMtS0N8RyLacB-43" parent="1">
          <mxGeometry relative="1" as="geometry" />
        </mxCell>
        <mxCell id="4sgsqvzbMtS0N8RyLacB-44" value="Cortical &lt;br&gt;plate" style="rhombus;whiteSpace=wrap;html=1;rounded=1;sketch=1;fillColor=#fad9d5;strokeColor=#ae4132;fillStyle=solid;fontStyle=1;container=0;" vertex="1" parent="1">
          <mxGeometry x="1108" y="1240" width="80" height="80" as="geometry" />
        </mxCell>
        <mxCell id="4sgsqvzbMtS0N8RyLacB-91" value="" style="edgeStyle=orthogonalEdgeStyle;curved=1;rounded=1;sketch=1;orthogonalLoop=1;jettySize=auto;html=1;fontFamily=Verdana;fontStyle=1" edge="1" parent="1" source="4sgsqvzbMtS0N8RyLacB-7" target="4sgsqvzbMtS0N8RyLacB-44">
          <mxGeometry relative="1" as="geometry" />
        </mxCell>
        <mxCell id="4sgsqvzbMtS0N8RyLacB-36" value="" style="edgeStyle=orthogonalEdgeStyle;curved=1;rounded=1;sketch=1;orthogonalLoop=1;jettySize=auto;html=1;fontFamily=Verdana;fontStyle=1" edge="1" source="4sgsqvzbMtS0N8RyLacB-44" target="4sgsqvzbMtS0N8RyLacB-39" parent="1">
          <mxGeometry relative="1" as="geometry" />
        </mxCell>
        <mxCell id="4sgsqvzbMtS0N8RyLacB-37" value="" style="edgeStyle=orthogonalEdgeStyle;curved=1;rounded=1;sketch=1;orthogonalLoop=1;jettySize=auto;html=1;fontFamily=Verdana;fontStyle=1" edge="1" source="4sgsqvzbMtS0N8RyLacB-44" target="4sgsqvzbMtS0N8RyLacB-41" parent="1">
          <mxGeometry relative="1" as="geometry" />
        </mxCell>
        <mxCell id="4sgsqvzbMtS0N8RyLacB-9" value="Mandibular Molars" style="rounded=1;whiteSpace=wrap;html=1;sketch=1;container=0;fontStyle=1" vertex="1" parent="1">
          <mxGeometry x="1952" y="1160" width="120" height="40" as="geometry" />
        </mxCell>
        <mxCell id="4sgsqvzbMtS0N8RyLacB-48" value="Buccal Cortical plate" style="whiteSpace=wrap;html=1;rounded=1;sketch=1;fontStyle=1;container=0;" vertex="1" parent="1">
          <mxGeometry x="1792" y="1260" width="120" height="40" as="geometry" />
        </mxCell>
        <mxCell id="4sgsqvzbMtS0N8RyLacB-50" value="Lingual Cortical plate" style="whiteSpace=wrap;html=1;rounded=1;sketch=1;fontStyle=1;container=0;" vertex="1" parent="1">
          <mxGeometry x="2112" y="1260" width="120" height="40" as="geometry" />
        </mxCell>
        <mxCell id="4sgsqvzbMtS0N8RyLacB-51" value="Buccinator Attachment" style="rhombus;whiteSpace=wrap;html=1;rounded=1;sketch=1;fillColor=#fad9d5;strokeColor=#ae4132;fillStyle=solid;fontStyle=1;container=0;" vertex="1" parent="1">
          <mxGeometry x="1802" y="1360" width="100" height="100" as="geometry" />
        </mxCell>
        <mxCell id="4sgsqvzbMtS0N8RyLacB-47" value="" style="edgeStyle=orthogonalEdgeStyle;curved=1;rounded=1;sketch=1;orthogonalLoop=1;jettySize=auto;html=1;fontFamily=Verdana;fontStyle=1" edge="1" source="4sgsqvzbMtS0N8RyLacB-48" target="4sgsqvzbMtS0N8RyLacB-51" parent="1">
          <mxGeometry relative="1" as="geometry" />
        </mxCell>
        <mxCell id="4sgsqvzbMtS0N8RyLacB-52" value="Mylohyoid Attachment" style="rhombus;whiteSpace=wrap;html=1;rounded=1;sketch=1;fillColor=#fad9d5;strokeColor=#ae4132;fillStyle=solid;fontStyle=1;container=0;" vertex="1" parent="1">
          <mxGeometry x="2122" y="1360" width="100" height="100" as="geometry" />
        </mxCell>
        <mxCell id="4sgsqvzbMtS0N8RyLacB-49" value="" style="edgeStyle=orthogonalEdgeStyle;curved=1;rounded=1;sketch=1;orthogonalLoop=1;jettySize=auto;html=1;fontFamily=Verdana;fontStyle=1" edge="1" source="4sgsqvzbMtS0N8RyLacB-50" target="4sgsqvzbMtS0N8RyLacB-52" parent="1">
          <mxGeometry relative="1" as="geometry" />
        </mxCell>
        <mxCell id="4sgsqvzbMtS0N8RyLacB-53" value="Cortical &lt;br&gt;plate" style="rhombus;whiteSpace=wrap;html=1;rounded=1;sketch=1;fillColor=#fad9d5;strokeColor=#ae4132;fillStyle=solid;fontStyle=1;container=0;" vertex="1" parent="1">
          <mxGeometry x="1972" y="1240" width="80" height="80" as="geometry" />
        </mxCell>
        <mxCell id="4sgsqvzbMtS0N8RyLacB-92" value="" style="edgeStyle=orthogonalEdgeStyle;curved=1;rounded=1;sketch=1;orthogonalLoop=1;jettySize=auto;html=1;fontFamily=Verdana;fontStyle=1" edge="1" parent="1" source="4sgsqvzbMtS0N8RyLacB-9" target="4sgsqvzbMtS0N8RyLacB-53">
          <mxGeometry relative="1" as="geometry" />
        </mxCell>
        <mxCell id="4sgsqvzbMtS0N8RyLacB-45" value="" style="edgeStyle=orthogonalEdgeStyle;curved=1;rounded=1;sketch=1;orthogonalLoop=1;jettySize=auto;html=1;fontFamily=Verdana;fontStyle=1" edge="1" source="4sgsqvzbMtS0N8RyLacB-53" target="4sgsqvzbMtS0N8RyLacB-48" parent="1">
          <mxGeometry relative="1" as="geometry" />
        </mxCell>
        <mxCell id="4sgsqvzbMtS0N8RyLacB-46" value="" style="edgeStyle=orthogonalEdgeStyle;curved=1;rounded=1;sketch=1;orthogonalLoop=1;jettySize=auto;html=1;fontFamily=Verdana;fontStyle=1" edge="1" source="4sgsqvzbMtS0N8RyLacB-53" target="4sgsqvzbMtS0N8RyLacB-50" parent="1">
          <mxGeometry relative="1" as="geometry" />
        </mxCell>
        <mxCell id="4sgsqvzbMtS0N8RyLacB-112" value="Vestibular Abscess" style="whiteSpace=wrap;html=1;rounded=1;sketch=1;fontStyle=1;container=0;" vertex="1" parent="1">
          <mxGeometry x="1622" y="1390" width="120" height="40" as="geometry" />
        </mxCell>
        <mxCell id="4sgsqvzbMtS0N8RyLacB-113" value="" style="edgeStyle=orthogonalEdgeStyle;curved=1;rounded=1;sketch=1;orthogonalLoop=1;jettySize=auto;html=1;fontFamily=Verdana;fontStyle=1" edge="1" parent="1" source="4sgsqvzbMtS0N8RyLacB-51" target="4sgsqvzbMtS0N8RyLacB-112">
          <mxGeometry relative="1" as="geometry" />
        </mxCell>
        <mxCell id="4sgsqvzbMtS0N8RyLacB-116" value="Buccal Space&lt;br&gt;(Buccinator Space)" style="whiteSpace=wrap;html=1;rounded=1;sketch=1;fontStyle=1;container=0;" vertex="1" parent="1">
          <mxGeometry x="1792" y="1510" width="120" height="40" as="geometry" />
        </mxCell>
        <mxCell id="4sgsqvzbMtS0N8RyLacB-117" value="" style="edgeStyle=orthogonalEdgeStyle;curved=1;rounded=1;sketch=1;orthogonalLoop=1;jettySize=auto;html=1;fontFamily=Verdana;fontStyle=1" edge="1" parent="1" source="4sgsqvzbMtS0N8RyLacB-51" target="4sgsqvzbMtS0N8RyLacB-116">
          <mxGeometry relative="1" as="geometry" />
        </mxCell>
        <mxCell id="4sgsqvzbMtS0N8RyLacB-122" value="Sublingual Space Infection" style="whiteSpace=wrap;html=1;rounded=1;sketch=1;fontStyle=1;container=0;" vertex="1" parent="1">
          <mxGeometry x="2272" y="1390" width="120" height="40" as="geometry" />
        </mxCell>
        <mxCell id="4sgsqvzbMtS0N8RyLacB-125" value="" style="edgeStyle=orthogonalEdgeStyle;curved=1;rounded=1;sketch=1;orthogonalLoop=1;jettySize=auto;html=1;fontFamily=Verdana;fontStyle=1" edge="1" parent="1" source="4sgsqvzbMtS0N8RyLacB-52" target="4sgsqvzbMtS0N8RyLacB-122">
          <mxGeometry relative="1" as="geometry" />
        </mxCell>
        <mxCell id="4sgsqvzbMtS0N8RyLacB-123" value="Submandibular Space Infection" style="whiteSpace=wrap;html=1;rounded=1;sketch=1;fontStyle=1;container=0;" vertex="1" parent="1">
          <mxGeometry x="2112" y="1510" width="120" height="40" as="geometry" />
        </mxCell>
        <mxCell id="4sgsqvzbMtS0N8RyLacB-124" value="" style="edgeStyle=orthogonalEdgeStyle;curved=1;rounded=1;sketch=1;orthogonalLoop=1;jettySize=auto;html=1;fontFamily=Verdana;fontStyle=1" edge="1" parent="1" source="4sgsqvzbMtS0N8RyLacB-52" target="4sgsqvzbMtS0N8RyLacB-123">
          <mxGeometry relative="1" as="geometry" />
        </mxCell>
        <mxCell id="4sgsqvzbMtS0N8RyLacB-173" value="Apical/Periocoronal" style="rounded=1;whiteSpace=wrap;html=1;sketch=1;container=0;fontStyle=1" vertex="1" parent="1">
          <mxGeometry x="2810" y="1240" width="120" height="40" as="geometry" />
        </mxCell>
        <mxCell id="4sgsqvzbMtS0N8RyLacB-178" value="" style="edgeStyle=orthogonalEdgeStyle;curved=1;rounded=1;sketch=1;orthogonalLoop=1;jettySize=auto;html=1;fontFamily=Verdana;" edge="1" parent="1" source="4sgsqvzbMtS0N8RyLacB-175" target="4sgsqvzbMtS0N8RyLacB-177">
          <mxGeometry relative="1" as="geometry" />
        </mxCell>
        <mxCell id="4sgsqvzbMtS0N8RyLacB-175" value="Submasseteric Space Infection" style="whiteSpace=wrap;html=1;rounded=1;sketch=1;fontStyle=1;container=0;" vertex="1" parent="1">
          <mxGeometry x="2970" y="1590" width="120" height="40" as="geometry" />
        </mxCell>
        <mxCell id="4sgsqvzbMtS0N8RyLacB-177" value="Superficial Temporal Space" style="whiteSpace=wrap;html=1;rounded=1;sketch=1;fontStyle=1;container=0;" vertex="1" parent="1">
          <mxGeometry x="2970" y="1680" width="120" height="40" as="geometry" />
        </mxCell>
      </root>
    </mxGraphModel>
  </diagram>
</mxfile>
